<svg xmlns="http://www.w3.org/2000/svg" width="24" height="18">
  <path d="M23.74 17.3l-8.28-8.276 6.12-6.125 2.18-2.17a1.466 1.466 0 01.24.772v15a1.476 1.476 0 01-.26.799zM21.05 2.368l-2.79 2.794-5.35 5.346-.93.939-9.03-9.031-1.5-1.5L.76.227A1.427 1.427 0 011.5 0h21a1.5 1.5 0 01.72.207l-.76.755zM.91 1.445L8.47 9 .23 17.244A1.468 1.468 0 010 16.5v-15A1.467 1.467 0 01.23.756l.68.689zM9 9.53l.32.317.11.113 1.03 1.031 1.5 1.5.06-.063.02.016 1.41-1.406 1.48-1.484 8.26 8.258a1.482 1.482 0 01-.69.188h-21a1.428 1.428 0 01-.74-.226z" fill="#b99403" fill-rule="evenodd"/>
</svg>
