<svg xmlns="http://www.w3.org/2000/svg" width="163" height="133">
  <path d="M163 15.313l-15.28 15.313v2.552a33.052 33.052 0 01-1.1 8.069c-.36 21.063-7.06 49-34.56 71.053-54.1 43.37-112.061 5.1-112.061 5.1 45.844 0 45.844-15.31 45.844-15.31-10.188 0-30.563-20.42-30.563-20.42 5.094 5.1 15.282 0 15.282 0-25.47-15.31-25.47-30.626-25.47-30.626 5.094 5.106 15.282 0 15.282 0C-5.095 30.626 10.186 5.103 10.186 5.103c5.094 25.523 71.313 35.732 71.313 35.732l.842-.423a60.7 60.7 0 01-.842-9.786C81.5 12.3 96.32 0 114.61 0a32.857 32.857 0 0125.04 11.7l2.97-1.49L157.91 0l-10.19 20.418z" fill="#bc7d00" fill-opacity=".9" fill-rule="evenodd"/>
</svg>
